<svg width="46" height="32" viewBox="0 0 46 32" fill="none" xmlns="http://www.w3.org/2000/svg">
<g clip-path="url(#clip0_0_516)">
<path d="M2.51102 0H43.4881C44.8732 0.00748713 46 1.14179 46 2.52691V29.4731C46 30.862 44.862 32 43.4731 32H2.51102C1.12964 31.9925 -0.000915527 30.8582 -0.000915527 29.4731V2.52691C-0.000915527 1.14179 1.1259 0.00748713 2.51102 0Z" fill="#FF9933"/>
<path d="M-0.000915527 10.6655H46V21.3347H-0.000915527V10.6655Z" fill="white"/>
<path d="M-0.000915527 21.3345H46V29.473C46 30.8618 44.862 31.9999 43.4731 31.9999H2.51102C1.12964 31.9924 -0.000915527 30.8581 -0.000915527 29.473V21.3345Z" fill="#128807"/>
<path d="M27.2672 16.0001C27.2672 13.6416 25.358 11.7324 22.9995 11.7324C20.6411 11.7324 18.7319 13.6416 18.7319 16.0001C18.7319 18.3548 20.6411 20.2678 22.9995 20.2678C25.358 20.2678 27.2672 18.3585 27.2672 16.0001Z" fill="#000088"/>
<path d="M26.7319 15.9999C26.7319 13.9372 25.0623 12.2676 22.9995 12.2676C20.9368 12.2676 19.2672 13.9372 19.2672 15.9999C19.2672 18.0626 20.9368 19.7322 22.9995 19.7322C25.0623 19.7322 26.7319 18.0626 26.7319 15.9999Z" fill="white"/>
<path d="M23.7445 15.9999C23.7445 15.5881 23.4113 15.2512 22.9995 15.2512C22.5878 15.2512 22.2546 15.5844 22.2546 15.9999C22.2546 16.4117 22.5878 16.7449 22.9995 16.7449C23.4113 16.7449 23.7445 16.4117 23.7445 15.9999Z" fill="#000088"/>
<path d="M26.8854 16.5128C26.9004 16.4117 26.8255 16.3182 26.7244 16.3032C26.6234 16.2882 26.5298 16.3631 26.5148 16.4642C26.4998 16.5652 26.5747 16.6588 26.6758 16.6738C26.7806 16.685 26.8742 16.6139 26.8854 16.5128Z" fill="#000088"/>
<path d="M22.9995 19.7323L23.1268 17.4937L22.9995 16.4268L22.8723 17.4937L22.9995 19.7323Z" fill="#000088"/>
<path d="M26.6196 17.5012C26.6608 17.4077 26.6121 17.2953 26.5185 17.2579C26.4249 17.2167 26.3126 17.2654 26.2752 17.359C26.234 17.4526 26.2827 17.5649 26.3763 17.6023C26.4736 17.6398 26.5822 17.5948 26.6196 17.5012Z" fill="black"/>
<path d="M22.0337 19.6051L22.7375 17.475L22.891 16.4119L22.4904 17.4114L22.0337 19.6051Z" fill="black"/>
<path d="M26.1104 18.3884C26.1741 18.306 26.1591 18.19 26.0767 18.1263C25.9944 18.0627 25.8783 18.0777 25.8147 18.16C25.751 18.2424 25.766 18.3584 25.8484 18.4221C25.9307 18.4857 26.0468 18.467 26.1104 18.3884Z" fill="black"/>
<path d="M21.1315 19.2344L22.3632 17.3589L22.7862 16.3706L22.1423 17.2279L21.1315 19.2344Z" fill="black"/>
<path d="M25.3842 19.1108C25.4666 19.0472 25.4816 18.9311 25.4179 18.8487C25.3543 18.7664 25.2382 18.7514 25.1559 18.8151C25.0735 18.8787 25.0585 18.9947 25.1222 19.0771C25.1858 19.1557 25.3056 19.1744 25.3842 19.1108Z" fill="black"/>
<path d="M20.3604 18.6392L22.0337 17.1455L22.6963 16.3032L21.854 16.9658L20.3604 18.6392Z" fill="black"/>
<path d="M24.5007 19.6238C24.5943 19.5826 24.643 19.4741 24.6018 19.3805C24.5606 19.2869 24.452 19.2382 24.3584 19.2794C24.2648 19.3168 24.2162 19.4291 24.2574 19.5227C24.2948 19.6163 24.4034 19.6612 24.5007 19.6238Z" fill="black"/>
<path d="M19.7651 17.868L21.7717 16.8573L22.629 16.2134L21.6407 16.6364L19.7651 17.868Z" fill="black"/>
<path d="M23.5124 19.8859C23.6135 19.871 23.6846 19.7774 23.6734 19.6763C23.6584 19.5752 23.5649 19.5041 23.4638 19.5153C23.3627 19.5303 23.2916 19.6239 23.3028 19.725C23.314 19.8298 23.4076 19.9009 23.5124 19.8859Z" fill="black"/>
<path d="M19.3945 16.9658L21.5919 16.5091L22.5877 16.1123L21.5246 16.262L19.3945 16.9658Z" fill="black"/>
<path d="M22.4867 19.8857C22.5877 19.9007 22.6813 19.8258 22.6963 19.7247C22.7113 19.6237 22.6364 19.5301 22.5353 19.5151C22.4343 19.5001 22.3407 19.575 22.3257 19.6761C22.3145 19.7809 22.3856 19.8745 22.4867 19.8857Z" fill="black"/>
<path d="M19.2672 16.0001L21.5059 16.1274L22.5728 16.0001L21.5059 15.8728L19.2672 16.0001Z" fill="black"/>
<path d="M21.4984 19.6238C21.5919 19.665 21.7043 19.6163 21.7417 19.5227C21.7791 19.4291 21.7342 19.3168 21.6406 19.2794C21.547 19.2382 21.4347 19.2869 21.3973 19.3805C21.3598 19.4741 21.4048 19.5826 21.4984 19.6238Z" fill="black"/>
<path d="M19.3945 15.0342L21.5246 15.738L22.5877 15.8915L21.5919 15.4909L19.3945 15.0342Z" fill="black"/>
<path d="M20.6112 19.1108C20.6935 19.1744 20.8096 19.1595 20.8732 19.0771C20.9368 18.9947 20.9219 18.8787 20.8395 18.8151C20.7572 18.7514 20.6411 18.7664 20.5775 18.8487C20.5176 18.9311 20.5325 19.0472 20.6112 19.1108Z" fill="black"/>
<path d="M19.7651 14.1321L21.6407 15.3637L22.629 15.7867L21.7717 15.1428L19.7651 14.1321Z" fill="black"/>
<path d="M19.8886 18.3884C19.9523 18.4707 20.0683 18.4857 20.1507 18.4221C20.233 18.3584 20.248 18.2424 20.1844 18.16C20.1207 18.0777 20.0047 18.0627 19.9223 18.1263C19.8437 18.1862 19.825 18.306 19.8886 18.3884Z" fill="black"/>
<path d="M20.3604 13.3608L21.854 15.0342L22.6963 15.7006L22.0337 14.8545L20.3604 13.3608Z" fill="black"/>
<path d="M19.3758 17.5012C19.417 17.5948 19.5255 17.6435 19.6191 17.6023C19.7127 17.5611 19.7614 17.4526 19.7202 17.359C19.679 17.2654 19.5705 17.2167 19.4769 17.2579C19.3833 17.2953 19.3384 17.4039 19.3758 17.5012Z" fill="black"/>
<path d="M21.1315 12.7656L22.1423 14.7722L22.7862 15.6295L22.3632 14.6449L21.1315 12.7656Z" fill="black"/>
<path d="M19.1137 16.5128C19.1287 16.6139 19.2223 16.685 19.3234 16.6738C19.4245 16.6588 19.4956 16.5652 19.4844 16.4641C19.4694 16.3631 19.3758 16.2919 19.2747 16.3032C19.1699 16.3144 19.0988 16.408 19.1137 16.5128Z" fill="black"/>
<path d="M22.0337 12.395L22.4904 14.5925L22.891 15.5883L22.7375 14.5251L22.0337 12.395Z" fill="black"/>
<path d="M19.1137 15.4871C19.0988 15.5882 19.1736 15.6818 19.2747 15.6967C19.3758 15.7117 19.4694 15.6368 19.4843 15.5358C19.4993 15.4347 19.4244 15.3411 19.3234 15.3261C19.2185 15.3149 19.125 15.386 19.1137 15.4871Z" fill="black"/>
<path d="M22.9995 12.2676L22.8723 14.5062L22.9995 15.5731L23.1268 14.5062L22.9995 12.2676Z" fill="black"/>
<path d="M19.3795 14.4988C19.3383 14.5924 19.387 14.7047 19.4806 14.7421C19.5742 14.7796 19.6865 14.7346 19.7239 14.641C19.7651 14.5475 19.7164 14.4351 19.6228 14.3977C19.5255 14.3603 19.4169 14.4052 19.3795 14.4988Z" fill="black"/>
<path d="M23.9654 12.395L23.2616 14.5251L23.1081 15.5883L23.5087 14.5925L23.9654 12.395Z" fill="black"/>
<path d="M19.8887 13.6153C19.825 13.6977 19.84 13.8138 19.9224 13.8774C20.0047 13.941 20.1208 13.9261 20.1844 13.8437C20.248 13.7613 20.2331 13.6453 20.1507 13.5817C20.0684 13.518 19.9523 13.533 19.8887 13.6153Z" fill="black"/>
<path d="M24.8676 12.7656L23.636 14.6449L23.213 15.6295L23.8568 14.7722L24.8676 12.7656Z" fill="black"/>
<path d="M20.6149 12.8891C20.5326 12.9528 20.5176 13.0688 20.5812 13.1512C20.6449 13.2336 20.7609 13.2485 20.8433 13.1849C20.9256 13.1212 20.9406 13.0052 20.877 12.9228C20.8133 12.8405 20.6935 12.8293 20.6149 12.8891Z" fill="black"/>
<path d="M25.6388 13.3608L23.9654 14.8545L23.3028 15.7006L24.1451 15.0342L25.6388 13.3608Z" fill="black"/>
<path d="M21.4984 12.38C21.4048 12.4212 21.3598 12.5298 21.3973 12.6233C21.4385 12.7169 21.547 12.7656 21.6406 12.7244C21.7342 12.6832 21.7829 12.5747 21.7417 12.4811C21.7043 12.3838 21.5957 12.3388 21.4984 12.38Z" fill="black"/>
<path d="M26.234 14.1321L24.2275 15.1428L23.3702 15.7867L24.3585 15.3637L26.234 14.1321Z" fill="black"/>
<path d="M22.4867 12.1142C22.3856 12.1292 22.3145 12.2228 22.3257 12.3239C22.3407 12.4249 22.4343 12.4961 22.5353 12.4848C22.6364 12.4699 22.7113 12.3763 22.6963 12.2752C22.6851 12.1741 22.5915 12.0992 22.4867 12.1142Z" fill="black"/>
<path d="M26.6046 15.0342L24.4071 15.4909L23.4113 15.8915L24.4745 15.738L26.6046 15.0342Z" fill="black"/>
<path d="M23.5124 12.1142C23.4113 12.0992 23.3177 12.1741 23.3028 12.2752C23.2878 12.3763 23.3626 12.4699 23.4637 12.4848C23.5648 12.4998 23.6584 12.4249 23.6734 12.3239C23.6846 12.2228 23.6135 12.1254 23.5124 12.1142Z" fill="black"/>
<path d="M26.7319 16.0001L24.4932 15.8728L23.4263 16.0001L24.4932 16.1274L26.7319 16.0001Z" fill="black"/>
<path d="M24.5007 12.38C24.4071 12.3388 24.2948 12.3875 24.2574 12.4811C24.2162 12.5746 24.2648 12.687 24.3584 12.7244C24.452 12.7618 24.5643 12.7169 24.6018 12.6233C24.6392 12.526 24.5943 12.4174 24.5007 12.38Z" fill="black"/>
<path d="M26.6046 16.9658L24.4745 16.262L23.4113 16.1123L24.4071 16.5091L26.6046 16.9658Z" fill="black"/>
<path d="M25.3842 12.889C25.3019 12.8254 25.1858 12.8404 25.1222 12.9227C25.0585 13.0051 25.0735 13.1211 25.1559 13.1848C25.2382 13.2484 25.3543 13.2334 25.4179 13.1511C25.4816 13.0687 25.4666 12.9527 25.3842 12.889Z" fill="black"/>
<path d="M26.234 17.868L24.3585 16.6364L23.3702 16.2134L24.2275 16.8573L26.234 17.868Z" fill="black"/>
<path d="M26.1104 13.6153C26.0468 13.533 25.9307 13.518 25.8484 13.5817C25.766 13.6453 25.751 13.7613 25.8147 13.8437C25.8783 13.9261 25.9944 13.941 26.0767 13.8774C26.1554 13.8138 26.1741 13.694 26.1104 13.6153Z" fill="black"/>
<path d="M25.6388 18.6392L24.1451 16.9658L23.3028 16.3032L23.9654 17.1455L25.6388 18.6392Z" fill="black"/>
<path d="M26.6233 14.4989C26.5821 14.4053 26.4736 14.3566 26.38 14.3978C26.2864 14.439 26.2377 14.5475 26.2789 14.6411C26.3201 14.7347 26.4287 14.7796 26.5222 14.7422C26.6158 14.7048 26.6608 14.5962 26.6233 14.4989Z" fill="black"/>
<path d="M24.8676 19.2344L23.8568 17.2279L23.213 16.3706L23.636 17.3589L24.8676 19.2344Z" fill="black"/>
<path d="M26.8854 15.4871C26.8704 15.386 26.7768 15.3149 26.6758 15.3261C26.5747 15.3411 26.5035 15.4347 26.5148 15.5358C26.5298 15.6368 26.6233 15.708 26.7244 15.6967C26.8292 15.6855 26.9004 15.5919 26.8854 15.4871Z" fill="black"/>
<path d="M23.9654 19.6051L23.5087 17.4114L23.1081 16.4119L23.2616 17.475L23.9654 19.6051Z" fill="black"/>
</g>
<defs>
<clipPath id="clip0_0_516">
<rect width="46.0009" height="32" fill="white" transform="translate(-0.000915527)"/>
</clipPath>
</defs>
</svg>
