<svg width="42" height="36" viewBox="0 0 42 36" fill="none" xmlns="http://www.w3.org/2000/svg">
<path d="M22.8563 15.0188C23.1094 14.182 23.25 13.2961 23.25 12.375C23.25 7.40391 19.2211 3.375 14.25 3.375C9.27891 3.375 5.25 7.40391 5.25 12.375C5.25 14.2875 5.84063 16.0523 6.85313 17.5008C7.11328 17.8734 7.42266 18.2953 7.75313 18.7453C8.66016 19.9898 9.74297 21.4805 10.5516 22.95C11.2828 24.2859 11.6555 25.6781 11.8383 26.993L8.41406 27C8.25938 26.1562 7.99922 25.3336 7.58438 24.5742C6.88828 23.3086 6.02344 22.1203 5.15859 20.932C4.79297 20.4328 4.42734 19.9336 4.07578 19.4273C2.69062 17.4305 1.875 14.9977 1.875 12.375C1.875 5.54063 7.41563 0 14.25 0C21.0703 0 26.5969 5.5125 26.625 12.3258C25.3734 12.8672 24.6563 14.1258 24.6563 15.3703V15.4336C24.1148 15.1313 23.482 14.9836 22.8563 15.0188ZM18.0188 29.25C18.2648 29.8969 18.5602 30.5367 18.9188 31.1484C19.1227 31.5 19.3406 31.8445 19.5797 32.175C18.8273 34.3969 16.725 36 14.25 36C11.1422 36 8.625 33.4828 8.625 30.375V29.25H18.0188ZM10.875 12.375C10.875 12.9937 10.3688 13.5 9.75 13.5C9.13125 13.5 8.625 12.9937 8.625 12.375C8.625 9.26719 11.1422 6.75 14.25 6.75C14.8688 6.75 15.375 7.25625 15.375 7.875C15.375 8.49375 14.8688 9 14.25 9C12.3867 9 10.875 10.5117 10.875 12.375ZM26.9063 15.3422C26.9063 14.85 27.2227 14.407 27.7008 14.3016C28.4391 14.1328 29.2125 14.0414 30 14.0414C30.7875 14.0414 31.5609 14.1328 32.2992 14.3016C32.7773 14.407 33.0938 14.85 33.0938 15.3422V16.5867C33.0938 17.1352 33.4313 17.6273 33.9094 17.9016C34.3875 18.1758 34.9711 18.218 35.4422 17.9438L36.4125 17.3883C36.8414 17.1422 37.3758 17.1984 37.7133 17.557C38.2477 18.1266 38.7188 18.7664 39.1266 19.4695C39.5344 20.1727 39.8508 20.9039 40.0758 21.6492C40.2234 22.1203 39.9984 22.6125 39.5695 22.8586L38.557 23.4422C38.1 23.7023 37.8539 24.2086 37.8539 24.7359C37.8539 25.2633 38.1 25.7695 38.557 26.0297L39.5695 26.6133C39.9984 26.8594 40.2164 27.3516 40.0758 27.8227C39.8438 28.568 39.5273 29.2992 39.1266 30.0023C38.7258 30.7055 38.2477 31.3453 37.7133 31.9148C37.3758 32.2734 36.8344 32.3297 36.4125 32.0836L35.4422 31.5281C34.9711 31.2539 34.3805 31.2961 33.9094 31.5703C33.4313 31.8445 33.0938 32.3367 33.0938 32.8852V34.1297C33.0938 34.6219 32.7773 35.0648 32.2992 35.1703C31.5609 35.3391 30.7875 35.4305 30 35.4305C29.2125 35.4305 28.4391 35.3391 27.7008 35.1703C27.2227 35.0648 26.9063 34.6219 26.9063 34.1297V32.9062C26.9063 32.3508 26.5617 31.8586 26.0836 31.5773C25.6055 31.3031 25.0148 31.2609 24.5367 31.5352L23.5875 32.0836C23.1586 32.3297 22.6242 32.2734 22.2867 31.9148C21.7523 31.3453 21.2813 30.7055 20.8734 30.0023C20.4656 29.2992 20.1492 28.568 19.9242 27.8227C19.7766 27.3516 20.0016 26.8594 20.4305 26.6133L21.4148 26.0437C21.8719 25.7766 22.125 25.2633 22.125 24.7359C22.125 24.2086 21.8789 23.6953 21.4148 23.4281L20.4305 22.8586C20.0016 22.6125 19.7836 22.1203 19.9242 21.6492C20.1563 20.9039 20.4656 20.1727 20.8734 19.4695C21.2813 18.7664 21.7523 18.1266 22.2867 17.557C22.6242 17.1984 23.1586 17.1422 23.5875 17.3883L24.5438 17.9367C25.0219 18.2109 25.6125 18.1688 26.0906 17.8945C26.5758 17.6203 26.9133 17.1211 26.9133 16.5656V15.3422H26.9063ZM33.382 24.7289C33.4029 24.2723 33.3309 23.8161 33.1705 23.3881C33.0101 22.96 32.7647 22.5689 32.4489 22.2384C32.1331 21.9079 31.7536 21.6448 31.3333 21.4651C30.913 21.2854 30.4606 21.1927 30.0035 21.1927C29.5464 21.1927 29.094 21.2854 28.6737 21.4651C28.2534 21.6448 27.8739 21.9079 27.5582 22.2384C27.2424 22.5689 26.9969 22.96 26.8365 23.3881C26.6761 23.8161 26.6042 24.2723 26.625 24.7289C26.6042 25.1855 26.6761 25.6417 26.8365 26.0697C26.9969 26.4978 27.2424 26.8889 27.5582 27.2194C27.8739 27.5499 28.2534 27.813 28.6737 27.9927C29.094 28.1724 29.5464 28.2651 30.0035 28.2651C30.4606 28.2651 30.913 28.1724 31.3333 27.9927C31.7536 27.813 32.1331 27.5499 32.4489 27.2194C32.7647 26.8889 33.0101 26.4978 33.1705 26.0697C33.3309 25.6417 33.4029 25.1855 33.382 24.7289Z" fill="#1E40AF"/>
</svg>
