<svg width="36" height="36" viewBox="0 0 36 36" fill="none" xmlns="http://www.w3.org/2000/svg">
<path d="M24.1875 0H34.3125C35.2477 0 36 0.752344 36 1.6875V11.8125C36 12.4945 35.5922 13.1133 34.9594 13.3734C34.3266 13.6336 33.6023 13.493 33.1172 13.0078L30.375 10.2656L24.2578 16.3828C23.5969 17.0438 22.5281 17.0438 21.8742 16.3828L19.6242 14.1328C18.9633 13.4719 18.9633 12.4031 19.6242 11.7492L25.7414 5.63203L22.9922 2.88281C22.507 2.39766 22.3664 1.67344 22.6266 1.04062C22.8867 0.407813 23.5055 0 24.1875 0ZM11.8125 36H1.6875C0.752344 36 0 35.2477 0 34.3125V24.1875C0 23.5055 0.407813 22.8867 1.04062 22.6266C1.67344 22.3664 2.39766 22.507 2.88281 22.9922L5.625 25.7344L11.7422 19.6172C12.4031 18.9562 13.4719 18.9562 14.1258 19.6172L16.3758 21.8672C17.0367 22.5281 17.0367 23.5969 16.3758 24.2508L10.2586 30.368L13.0008 33.1102C13.4859 33.5953 13.6266 34.3195 13.3664 34.9523C13.1063 35.5852 12.4875 35.993 11.8055 35.993L11.8125 36Z" fill="#1E40AF"/>
</svg>
