<svg width="36" height="36" viewBox="0 0 36 36" fill="none" xmlns="http://www.w3.org/2000/svg">
<path d="M22.725 0.625781C21.2203 0.217969 19.6383 0 18 0C8.05781 0 0 8.05781 0 18C0 27.9422 8.05781 36 18 36C27.9422 36 36 27.9422 36 18C36 16.3617 35.782 14.7797 35.3742 13.275L33.4969 15.1523C33.6656 16.0734 33.75 17.0297 33.75 18C33.75 26.6977 26.6977 33.75 18 33.75C9.30234 33.75 2.25 26.6977 2.25 18C2.25 9.30234 9.30234 2.25 18 2.25C18.9703 2.25 19.9195 2.34141 20.8477 2.50312L22.725 0.625781ZM19.2094 6.81328C18.8156 6.77109 18.4078 6.75 18 6.75C11.7844 6.75 6.75 11.7844 6.75 18C6.75 24.2156 11.7844 29.25 18 29.25C24.2156 29.25 29.25 24.2156 29.25 18C29.25 17.5922 29.2289 17.1914 29.1867 16.7906L26.8945 16.6148C26.9648 17.0648 27 17.5289 27 18C27 22.9711 22.9711 27 18 27C13.0289 27 9 22.9711 9 18C9 13.0289 13.0289 9 18 9C18.4711 9 18.9352 9.03516 19.3852 9.10547L19.2094 6.81328ZM30.7406 5.2875L30.7125 5.25938L30.7195 5.28047L30.7406 5.2875ZM26.8031 7.60781L23.9977 10.4133L23.6602 6.05391L25.4602 4.25391L26.8031 7.60781ZM23.4914 14.1047L30.2906 14.625L30.8039 14.6672L31.1695 14.3016L34.5445 10.9266L35.7539 9.71719L34.1719 9.08437L28.9898 7.01016L26.9227 1.83516L26.2898 0.253125L25.0805 1.45547L21.7055 4.83047L21.3398 5.19609L21.382 5.70937L21.9023 12.5086L17.2055 17.2055L16.4109 18L18 19.5891L18.7945 18.7945L23.4914 14.0977V14.1047ZM25.5867 12.0094L28.3922 9.20391L31.7461 10.5469L29.9461 12.3469L25.5867 12.0094Z" fill="#1E40AF"/>
</svg>
