<svg width="45" height="36" viewBox="0 0 45 36" fill="none" xmlns="http://www.w3.org/2000/svg">
<path d="M16.25 14.625C17.7418 14.625 19.1726 14.0324 20.2275 12.9775C21.2824 11.9226 21.875 10.4918 21.875 9C21.875 7.50816 21.2824 6.07742 20.2275 5.02252C19.1726 3.96763 17.7418 3.375 16.25 3.375C14.7582 3.375 13.3274 3.96763 12.2725 5.02252C11.2176 6.07742 10.625 7.50816 10.625 9C10.625 10.4918 11.2176 11.9226 12.2725 12.9775C13.3274 14.0324 14.7582 14.625 16.25 14.625ZM16.25 0C18.6369 0 20.9261 0.948212 22.614 2.63604C24.3018 4.32387 25.25 6.61305 25.25 9C25.25 11.3869 24.3018 13.6761 22.614 15.364C20.9261 17.0518 18.6369 18 16.25 18C13.8631 18 11.5739 17.0518 9.88604 15.364C8.19821 13.6761 7.25 11.3869 7.25 9C7.25 6.61305 8.19821 4.32387 9.88604 2.63604C11.5739 0.948212 13.8631 0 16.25 0ZM3.96641 32.625H24.1672C24.3992 32.9203 24.6383 33.2016 24.8914 33.4688C25.9953 34.657 27.6758 34.7625 28.9133 34.0805V34.1437C28.9133 34.7906 29.1031 35.4445 29.4688 35.993L2.58828 36C1.43516 36 0.5 35.0648 0.5 33.9117C0.5 26.9859 6.11094 21.375 13.0367 21.375H16.25H19.4633C20.293 21.375 21.1086 21.4594 21.8891 21.607C21.7414 22.9078 22.4094 24.1102 23.4219 24.757C23.1688 24.9188 22.9297 25.1156 22.7258 25.3477C21.7133 24.9609 20.6094 24.75 19.4563 24.75H13.0297C8.41016 24.75 4.58516 28.1742 3.95938 32.625H3.96641ZM31.1562 15.3422C31.1562 14.85 31.4727 14.407 31.9508 14.3016C32.6891 14.1328 33.4625 14.0414 34.25 14.0414C35.0375 14.0414 35.8109 14.1328 36.5492 14.3016C37.0273 14.407 37.3438 14.85 37.3438 15.3422V17.4937C37.8992 17.7328 38.4266 18.0352 38.9117 18.3938L40.6625 17.3883C41.0914 17.1422 41.6258 17.1984 41.9633 17.557C42.4977 18.1266 42.9688 18.7664 43.3766 19.4695C43.7844 20.1727 44.1008 20.9039 44.3258 21.6492C44.4734 22.1203 44.2484 22.6125 43.8195 22.8586L42.0617 23.8711C42.0898 24.1523 42.1109 24.4406 42.1109 24.7359C42.1109 25.0312 42.0969 25.3125 42.0617 25.6008L43.8195 26.6133C44.2484 26.8594 44.4664 27.3516 44.3258 27.8227C44.0938 28.568 43.7773 29.2992 43.3766 30.0023C42.9758 30.7055 42.4977 31.3453 41.9633 31.9148C41.6258 32.2734 41.0844 32.3297 40.6625 32.0836L38.9117 31.0781C38.4266 31.4367 37.9062 31.7391 37.3438 31.9781V34.1297C37.3438 34.6219 37.0273 35.0648 36.5492 35.1703C35.8109 35.3391 35.0375 35.4305 34.25 35.4305C33.4625 35.4305 32.6891 35.3391 31.9508 35.1703C31.4727 35.0648 31.1562 34.6219 31.1562 34.1297V31.9852C30.5938 31.7461 30.0594 31.4438 29.5742 31.0781L27.8375 32.0836C27.4086 32.3297 26.8742 32.2734 26.5367 31.9148C26.0023 31.3453 25.5312 30.7055 25.1234 30.0023C24.7156 29.2992 24.3992 28.568 24.1742 27.8227C24.0266 27.3516 24.2516 26.8594 24.6805 26.6133L26.4242 25.6078C26.3961 25.3195 26.375 25.0312 26.375 24.7359C26.375 24.4406 26.3891 24.1523 26.4242 23.8641L24.6734 22.8516C24.2445 22.6055 24.0266 22.1133 24.1672 21.6422C24.3992 20.8969 24.7086 20.1656 25.1164 19.4625C25.5242 18.7594 25.9953 18.1195 26.5297 17.55C26.8672 17.1914 27.4016 17.1352 27.8305 17.3813L29.5742 18.3867C30.0594 18.0281 30.5938 17.7258 31.1562 17.4797V15.3352V15.3422ZM37.632 24.7289C37.6529 24.2723 37.5809 23.8161 37.4205 23.3881C37.2601 22.96 37.0146 22.5689 36.6989 22.2384C36.3831 21.9079 36.0036 21.6448 35.5833 21.4651C35.163 21.2854 34.7106 21.1927 34.2535 21.1927C33.7964 21.1927 33.344 21.2854 32.9237 21.4651C32.5034 21.6448 32.1239 21.9079 31.8082 22.2384C31.4924 22.5689 31.2469 22.96 31.0865 23.3881C30.9261 23.8161 30.8542 24.2723 30.875 24.7289C30.8542 25.1855 30.9261 25.6417 31.0865 26.0697C31.2469 26.4978 31.4924 26.8889 31.8082 27.2194C32.1239 27.5499 32.5034 27.813 32.9237 27.9927C33.344 28.1724 33.7964 28.2651 34.2535 28.2651C34.7106 28.2651 35.163 28.1724 35.5833 27.9927C36.0036 27.813 36.3831 27.5499 36.6989 27.2194C37.0146 26.8889 37.2601 26.4978 37.4205 26.0697C37.5809 25.6417 37.6529 25.1855 37.632 24.7289Z" fill="#1E40AE"/>
</svg>
