<svg width="46" height="36" viewBox="0 0 46 36" fill="none" xmlns="http://www.w3.org/2000/svg">
<path d="M12.875 3.9375V6.75H24.125V3.9375C24.125 3.62812 23.8719 3.375 23.5625 3.375H13.4375C13.1281 3.375 12.875 3.62812 12.875 3.9375ZM9.5 6.75V3.9375C9.5 1.76484 11.2648 0 13.4375 0H23.5625C25.7352 0 27.5 1.76484 27.5 3.9375V6.75H32C34.482 6.75 36.5 8.76797 36.5 11.25V13.5492C36.1273 13.5141 35.7547 13.5 35.375 13.5C34.6086 13.5 33.8563 13.5703 33.125 13.7039V11.25C33.125 10.6313 32.6188 10.125 32 10.125H25.8125H11.1875H5C4.38125 10.125 3.875 10.6313 3.875 11.25V18H14H25.25H25.8266C24.2867 19.8703 23.2812 22.1977 23.0492 24.75H23H16.25C15.0055 24.75 14 23.7445 14 22.5V21.375H3.875V29.25C3.875 29.8687 4.38125 30.375 5 30.375H23.8438C24.3289 31.6055 24.9969 32.7445 25.8266 33.75H5C2.51797 33.75 0.5 31.732 0.5 29.25V19.6875V11.25C0.5 8.76797 2.51797 6.75 5 6.75H9.5ZM25.25 25.875C25.25 23.1897 26.3167 20.6144 28.2155 18.7155C30.1144 16.8167 32.6897 15.75 35.375 15.75C38.0603 15.75 40.6356 16.8167 42.5345 18.7155C44.4333 20.6144 45.5 23.1897 45.5 25.875C45.5 28.5603 44.4333 31.1356 42.5345 33.0345C40.6356 34.9333 38.0603 36 35.375 36C32.6897 36 30.1144 34.9333 28.2155 33.0345C26.3167 31.1356 25.25 28.5603 25.25 25.875ZM35.375 20.25C34.7562 20.25 34.25 20.7563 34.25 21.375V25.875C34.25 26.4937 34.7562 27 35.375 27H38.75C39.3688 27 39.875 26.4937 39.875 25.875C39.875 25.2563 39.3688 24.75 38.75 24.75H36.5V21.375C36.5 20.7563 35.9938 20.25 35.375 20.25Z" fill="#1E40AF"/>
</svg>
