<svg width="46" height="36" viewBox="0 0 46 36" fill="none" xmlns="http://www.w3.org/2000/svg">
<path d="M19.0625 22.5C21.8609 22.5 24.125 20.2359 24.125 17.4375V16.875H31.4375C32.3726 16.875 33.125 17.6273 33.125 18.5625C33.125 19.3851 32.5343 20.0742 31.7609 20.2218C31.2195 20.3273 30.7625 20.6859 30.5375 21.1921C30.3125 21.6984 30.3476 22.282 30.6359 22.7531C30.7906 23.0062 30.875 23.3015 30.875 23.625C30.875 24.5601 30.1226 25.3125 29.1875 25.3125C28.2523 25.3125 27.5 26.0648 27.5 27C27.5 27.6187 26.9937 28.125 26.375 28.125H25.25H23H18.3101C17.2625 28.125 16.264 28.5398 15.5258 29.2781L11.6797 33.1171C11.0187 33.7781 11.0187 34.8468 11.6797 35.5007C12.3406 36.1546 13.4094 36.1617 14.0633 35.5007L17.9023 31.6617C18.0078 31.5562 18.1484 31.5 18.3031 31.5H22.9929H25.2429H26.3679C28.3367 31.5 30.0101 30.2414 30.6218 28.4835C32.7172 27.8648 34.2429 25.9242 34.2429 23.625C34.2429 23.3507 34.2218 23.0765 34.1797 22.8164C35.5789 21.9164 36.5 20.3484 36.5 18.5625C36.5 15.764 34.2359 13.5 31.4375 13.5H24.125V11.8125C24.125 10.8773 23.3726 10.125 22.4375 10.125C21.5023 10.125 20.75 10.8773 20.75 11.8125V17.4375C20.75 18.3726 19.9976 19.125 19.0625 19.125C18.1273 19.125 17.375 18.3726 17.375 17.4375V10.6875C17.375 9.13355 18.6336 7.87495 20.1875 7.87495H29.9398C30.9875 7.87495 31.9859 7.46011 32.7242 6.72183L36.5703 2.88277C37.2312 2.22183 37.2312 1.15308 36.5703 0.499173C35.9093 -0.154733 34.8406 -0.161764 34.1867 0.499173L30.3406 4.33824C30.2351 4.44371 30.0945 4.49995 29.9398 4.49995H20.1875C16.7703 4.49995 14 7.27027 14 10.6875V17.4375C14 20.2359 16.264 22.5 19.0625 22.5ZM11.75 9.31636C10.414 9.84371 9.36638 10.9757 8.97966 12.4242L7.46091 18.1054C7.43279 18.2039 7.38357 18.2882 7.31326 18.3585L0.992163 24.6796C0.331226 25.3406 0.331226 26.4093 0.992163 27.0632C1.6531 27.7171 2.72185 27.7242 3.37576 27.0632L9.70388 20.7421C10.1961 20.25 10.5476 19.6453 10.7234 18.9703L11.75 15.1242V9.31636ZM38.6937 17.6343L45.0078 11.3203C45.6687 10.6593 45.6687 9.59058 45.0078 8.93667C44.3468 8.28277 43.2781 8.27574 42.6242 8.93667L37.3297 14.2312C38.0539 15.2085 38.532 16.3757 38.6937 17.6414V17.6343Z" fill="#1E40AF"/>
</svg>
