<svg width="45" height="32" viewBox="0 0 45 32" fill="none" xmlns="http://www.w3.org/2000/svg">
<path d="M24.9539 6.55703C25.9242 7.68203 27.5203 8.04062 28.8844 7.43594C29.5102 7.16172 30.1992 7 30.9375 7C33.7359 7 36 9.26406 36 12.0625C36 12.3438 35.9789 12.618 35.9367 12.8852C35.6906 14.4039 36.5063 15.9016 37.9125 16.5203C40.1063 17.4695 41.625 19.6562 41.625 22.1875C41.625 25.4781 39.0516 28.1781 35.8031 28.3609C35.7609 28.3609 35.7117 28.368 35.6695 28.375H35.4375H10.125C6.39844 28.375 3.375 25.3516 3.375 21.625C3.375 18.693 5.24531 16.1898 7.875 15.2617C9.225 14.7836 10.125 13.5109 10.125 12.0766V12.0625C10.125 7.40078 13.9008 3.625 18.5625 3.625C21.1148 3.625 23.4 4.75703 24.9539 6.55703ZM36 31.75V31.7359C41.0203 31.4477 45 27.2852 45 22.1875C45 18.2711 42.6445 14.8961 39.2695 13.4195C39.3398 12.9766 39.375 12.5195 39.375 12.0625C39.375 7.40078 35.5992 3.625 30.9375 3.625C29.7141 3.625 28.5609 3.88516 27.5133 4.34922C25.3406 1.83906 22.1414 0.25 18.5625 0.25C12.0375 0.25 6.75 5.5375 6.75 12.0625V12.0766C2.81953 13.4688 0 17.2164 0 21.625C0 27.2148 4.53516 31.75 10.125 31.75H32.625H35.4375H36ZM12.375 13.1875V14.3125C12.375 15.8664 13.6336 17.125 15.1875 17.125H16.3125C17.8664 17.125 19.125 15.8664 19.125 14.3125V13.1875C19.125 11.6336 17.8664 10.375 16.3125 10.375H15.1875C13.6336 10.375 12.375 11.6336 12.375 13.1875ZM15.1875 12.625H16.3125C16.6219 12.625 16.875 12.8781 16.875 13.1875V14.3125C16.875 14.6219 16.6219 14.875 16.3125 14.875H15.1875C14.8781 14.875 14.625 14.6219 14.625 14.3125V13.1875C14.625 12.8781 14.8781 12.625 15.1875 12.625ZM20.25 11.5C20.25 12.1187 20.7563 12.625 21.375 12.625V16C21.375 16.6187 21.8813 17.125 22.5 17.125C23.1187 17.125 23.625 16.6187 23.625 16V11.5C23.625 10.8813 23.1187 10.375 22.5 10.375H21.375C20.7563 10.375 20.25 10.8813 20.25 11.5ZM28.6875 10.375C27.1336 10.375 25.875 11.6336 25.875 13.1875V14.3125C25.875 15.8664 27.1336 17.125 28.6875 17.125H29.8125C31.3664 17.125 32.625 15.8664 32.625 14.3125V13.1875C32.625 11.6336 31.3664 10.375 29.8125 10.375H28.6875ZM28.125 13.1875C28.125 12.8781 28.3781 12.625 28.6875 12.625H29.8125C30.1219 12.625 30.375 12.8781 30.375 13.1875V14.3125C30.375 14.6219 30.1219 14.875 29.8125 14.875H28.6875C28.3781 14.875 28.125 14.6219 28.125 14.3125V13.1875ZM13.5 20.5C13.5 21.1187 14.0063 21.625 14.625 21.625V25C14.625 25.6187 15.1313 26.125 15.75 26.125C16.3687 26.125 16.875 25.6187 16.875 25V20.5C16.875 19.8813 16.3687 19.375 15.75 19.375H14.625C14.0063 19.375 13.5 19.8813 13.5 20.5ZM19.125 22.1875V23.3125C19.125 24.8664 20.3836 26.125 21.9375 26.125H23.0625C24.6164 26.125 25.875 24.8664 25.875 23.3125V22.1875C25.875 20.6336 24.6164 19.375 23.0625 19.375H21.9375C20.3836 19.375 19.125 20.6336 19.125 22.1875ZM21.9375 21.625H23.0625C23.3719 21.625 23.625 21.8781 23.625 22.1875V23.3125C23.625 23.6219 23.3719 23.875 23.0625 23.875H21.9375C21.6281 23.875 21.375 23.6219 21.375 23.3125V22.1875C21.375 21.8781 21.6281 21.625 21.9375 21.625ZM28.125 19.375C27.5063 19.375 27 19.8813 27 20.5C27 21.1187 27.5063 21.625 28.125 21.625V25C28.125 25.6187 28.6313 26.125 29.25 26.125C29.8687 26.125 30.375 25.6187 30.375 25V20.5C30.375 19.8813 29.8687 19.375 29.25 19.375H28.125Z" fill="#1E40AE"/>
</svg>
