<svg width="46" height="32" viewBox="0 0 46 32" fill="none" xmlns="http://www.w3.org/2000/svg">
<path d="M8.375 3.625H37.625V20.5H41V3.625V0.25H37.625H8.375H5V3.625V20.5H8.375V3.625ZM4.14922 26.125H41.8508L39.6008 28.375H6.39922L4.14922 26.125ZM45.5 27.25V26.125V22.75H42.125H3.875H0.5V26.125V27.25L5 31.75H41L45.5 27.25ZM20.2578 10.4453L21.4531 9.25L19.0625 6.86641L17.8672 8.06172L14.4922 11.4367L13.2969 12.632L14.4922 13.8273L17.8672 17.2023L19.0625 18.3977L21.4461 16L20.2508 14.8047L18.0711 12.625L20.2508 10.4453H20.2578ZM28.1328 8.05469L26.9375 6.85938L24.5539 9.25L25.7492 10.4453L27.9289 12.625L25.7492 14.8047L24.5539 16L26.9375 18.3836L28.1328 17.1883L31.5078 13.8133L32.7031 12.618L31.5078 11.4227L28.1328 8.04766V8.05469Z" fill="#1E40AF"/>
</svg>
